<?xml version="1.0" standalone="no"?><!DOCTYPE svg PUBLIC "-//W3C//DTD SVG 1.1//EN" "http://www.w3.org/Graphics/SVG/1.1/DTD/svg11.dtd"><svg class="icon" height="512" viewBox="0 0 1024 1024" version="1.1" xmlns="http://www.w3.org/2000/svg"><path d="M196.086 192.782c137.706-136.056 360.965-136.056 498.67 0 127.143 125.616 136.793 323.235 29.165 459.896l56.296 55.65c9.219-3.136 19.058-1.717 25.518 4.692L936.98 842.684c9.649 9.542 8.201 26.482-3.271 37.797l-51.953 51.335c-11.472 11.34-28.6 12.785-38.277 3.242L712.234 805.422c-6.461-6.407-7.909-16.138-4.72-25.253l-57.849-57.099c-137.692 96.935-330.041 84.442-453.58-37.607-137.692-136.046-137.692-356.635 0.001-492.681z m72.726 420.836c97.537 96.371 255.695 96.371 353.217 0 97.55-96.368 97.55-252.61 0-348.994-97.534-96.371-255.68-96.355-353.217-0.001-97.535 96.371-97.535 252.627 0 348.995z m327.242-323.353a21.57 21.57 0 0 1 0 30.812c-8.605 8.5-22.544 8.513-31.176 0l0.026-0.027c-66.12-65.059-172.863-65.059-238.94 0.027-8.591 8.5-22.573 8.5-31.164 0a21.596 21.596 0 0 1 0-30.785c83.208-82.203 218.034-82.202 301.254-0.027z" fill="#FFFFFF" /></svg>